<svg width="161" height="26" viewBox="0 0 161 26" fill="none" xmlns="http://www.w3.org/2000/svg">
<path d="M12.8638 0.000244141L15.6824 8.67499L24.8036 8.67499L17.4244 14.0363L20.243 22.711L12.8638 17.3497L5.4846 22.711L8.3032 14.0363L0.924017 8.67499L10.0452 8.67499L12.8638 0.000244141Z" fill="#F7BF24"/>
<path d="M46.6591 0.000244141L49.626 8.67499L59.2272 8.67499L51.4597 14.0363L54.4266 22.711L46.6591 17.3497L38.8915 22.711L41.8584 14.0363L34.0909 8.67499L43.6921 8.67499L46.6591 0.000244141Z" fill="#F7BF24"/>
<path d="M80.4544 0.000244141L83.273 8.67499L92.3941 8.67499L85.0149 14.0363L87.8335 22.711L80.4544 17.3497L73.0752 22.711L75.8938 14.0363L68.5146 8.67499L77.6358 8.67499L80.4544 0.000244141Z" fill="#F7BF24"/>
<path d="M114.25 0.000244141L117.217 8.67499L126.818 8.67499L119.05 14.0363L122.017 22.711L114.25 17.3497L106.482 22.711L109.449 14.0363L101.681 8.67499L111.283 8.67499L114.25 0.000244141Z" fill="#F7BF24"/>
<path d="M148.045 0L150.863 8.67475L159.985 8.67475L152.605 14.036L155.424 22.7108L148.045 17.3495L140.666 22.7108L143.484 14.036L136.105 8.67475L145.226 8.67475L148.045 0Z" fill="#F7BF24"/>
</svg>
