<svg width="260" height="30" viewBox="0 0 260 30" fill="none" xmlns="http://www.w3.org/2000/svg">
<path d="M195.065 20.3233C195.065 18.993 196.161 17.983 197.491 17.983C198.821 17.983 199.942 18.993 199.942 20.3233C199.942 21.6535 198.846 22.6881 197.491 22.6881C196.136 22.6881 195.065 21.6781 195.065 20.3233Z" fill="#D4D4FC"/>
<path d="M212.124 16.5293H216.262C215.843 20.0397 212.838 22.4538 209.094 22.4538C204.783 22.4538 201.445 19.276 201.445 15.0143C201.445 10.7526 204.783 7.57483 209.094 7.57483C212.838 7.57483 215.843 9.98896 216.262 13.4993H212.124C211.828 12.1321 210.67 11.233 209.094 11.233C206.926 11.233 205.522 12.8958 205.522 15.0143C205.522 17.1328 206.914 18.7587 209.094 18.7587C210.67 18.7587 211.828 17.8965 212.124 16.5293Z" fill="#D4D4FC"/>
<path d="M229.577 15.0023C229.577 12.8838 228.21 11.258 226.067 11.258C223.923 11.258 222.495 12.8961 222.495 15.0023C222.495 17.1085 223.899 18.8699 226.067 18.8699C228.234 18.8699 229.577 17.1455 229.577 15.0023ZM233.654 15.0023C233.654 19.3502 230.439 22.565 226.067 22.565C221.694 22.565 218.418 19.3502 218.418 15.0023C218.418 10.6544 221.657 7.56287 226.067 7.56287C230.476 7.56287 233.654 10.6914 233.654 15.0023Z" fill="#D4D4FC"/>
<path d="M260 14.288V22.1094H255.861V14.6452C255.861 12.3789 254.765 11.1595 252.819 11.1595C251.957 11.1595 250.996 11.5414 250.134 12.7361C250.196 13.2411 250.257 13.7461 250.257 14.288V22.1094H246.119V14.6452C246.119 12.3789 245.023 11.1595 243.052 11.1595C242.251 11.1595 241.352 11.6399 240.514 12.7607V22.097H236.376V7.84625H240.514V8.70843C241.414 7.87088 242.362 7.40283 244.025 7.40283C245.835 7.40283 247.449 8.11722 248.582 9.42282C250.097 8.01868 251.526 7.40283 253.768 7.40283C257.253 7.40283 259.988 10.1126 259.988 14.2757" fill="#D4D4FC"/>
<path d="M11.0484 6.442L7.98143 14.1524H14.1892L11.0607 6.442H11.0484ZM6.35558 18.2048L4.72974 22.257H0L8.99143 1.07178H13.1669L22.1337 22.257H17.4409L15.8151 18.2048H6.35558Z" fill="#D4D4FC"/>
<path d="M38.5031 14.1279V22.2694H34.2414V14.4974C34.2414 12.1448 33.0713 10.8762 31.0759 10.8762C30.0043 10.8762 28.8342 11.529 27.8488 12.736V22.2694H23.5872V7.43971H27.8488V8.48667C29.0436 7.52594 30.3985 6.97168 32.0613 6.97168C35.9288 6.97168 38.5031 9.79227 38.5031 14.1279Z" fill="#D4D4FC"/>
<path d="M63.0508 0.283325H58.7891V22.2692H63.0508V0.283325Z" fill="#D4D4FC"/>
<path d="M73.545 29.3887H69.0616L71.9191 22.639L64.7629 7.40283H69.3079L74.0623 17.5274L78.3609 7.40283H82.8443L73.545 29.3887Z" fill="#D4D4FC"/>
<path d="M86.7487 17.1579C86.9951 18.7345 88.1282 19.3503 89.8157 19.3503C91.2937 19.3503 92.3037 18.8576 92.3037 18.0817C92.3037 17.4905 91.811 17.0224 90.8257 16.8377L87.6971 16.308C85.4554 15.9016 83.3616 14.6699 83.3616 11.9109C83.3616 8.84392 85.9358 7.021 89.7171 7.021C92.2298 7.021 96.0111 7.88319 96.3191 12.071L92.4146 12.0956C92.3283 10.7654 91.1213 10.2357 89.7171 10.2357C88.313 10.2357 87.537 10.827 87.537 11.5044C87.537 12.0587 87.9312 12.6499 89.286 12.8962L91.9588 13.3273C94.3607 13.7584 96.4053 14.9039 96.4053 17.6875C96.4053 21.0378 93.5231 22.7006 89.7787 22.7006C86.3669 22.7006 83.1522 21.3088 82.8442 17.0963L86.7487 17.1333V17.1579Z" fill="#D4D4FC"/>
<path d="M102.748 13.4136H109.375C109.104 11.6769 107.996 10.6546 106.185 10.6546C104.251 10.6546 103.143 11.837 102.748 13.4136ZM113.489 16.4436H102.773C103.204 17.934 104.374 19.0425 106.456 19.0425C107.651 19.0425 108.488 18.673 108.944 17.9217H113.39C112.59 20.7669 109.831 22.6021 106.357 22.6021C101.628 22.6021 98.4622 19.2888 98.4622 14.867C98.4622 10.4452 101.591 7.11963 106.296 7.11963C110.447 7.11963 113.575 10.125 113.575 14.5468C113.575 15.1626 113.575 15.8154 113.477 16.4313" fill="#D4D4FC"/>
<path d="M138.308 22.2693H133.861V10.8391L128.639 19.1038H126.028V19.0791L120.781 10.7528L120.842 22.2693H116.359V1.20715H119.549L127.346 13.5981L135.155 1.20715H138.308V22.2693Z" fill="#968AEB"/>
<path d="M149.307 29.3887H144.824L147.681 22.639L140.525 7.40283H145.07L149.837 17.5274L154.123 7.40283H158.606L149.307 29.3887Z" fill="#968AEB"/>
<path d="M165.553 1.20715H161.107V22.2693H165.553V1.20715Z" fill="#694FE3"/>
<path d="M51.867 17.2196C51.867 17.2196 51.7931 17.3058 51.7562 17.3428C50.9925 18.3774 49.7854 19.0425 48.4182 19.0425C46.115 19.0425 44.2428 17.158 44.2428 14.8301C44.2428 12.5022 46.115 10.63 48.4182 10.63C50.7215 10.63 52.5937 12.5145 52.5937 14.8301C52.5937 15.7046 52.3227 16.5175 51.867 17.195V17.2196ZM51.867 7.45221V8.3144C50.7338 7.57538 49.3543 7.14429 47.6915 7.14429C43.6392 7.14429 40.3506 10.5191 40.3506 14.8794C40.3506 19.2396 43.6392 22.5898 47.6915 22.5898C49.3543 22.5898 50.7338 22.1587 51.867 21.4074V22.2696H56.1287V7.43988H51.867V7.45221Z" fill="#D4D4FC"/>
<path d="M194.153 12.9205C194.153 5.80131 188.414 0 181.344 0C174.274 0 168.534 5.78899 168.534 12.9205C168.534 17.8843 171.33 22.1953 175.407 24.3508L177.045 20.3231L176.983 20.2738C174.495 18.7711 172.82 16.0368 172.82 12.9205C172.82 8.19081 176.639 4.3356 181.331 4.3356C186.024 4.3356 189.842 8.17849 189.842 12.9205C189.842 17.6626 186.024 21.5055 181.331 21.5055L179.693 25.5455L189.005 29.3884L190.655 25.3854L187.65 24.129C191.518 21.8997 194.129 17.7119 194.129 12.9205" fill="#694FE3"/>
</svg>
