<svg width="35" height="19" viewBox="0 0 35 19" fill="none" xmlns="http://www.w3.org/2000/svg">
<path d="M26.1493 0.953125H8.92216C4.16396 0.953125 0.308594 4.81334 0.308594 9.57753C0.308594 14.3417 4.16396 18.2019 8.92216 18.2019H26.1493C30.9075 18.2019 34.7628 14.3417 34.7628 9.57753C34.7628 4.81334 30.9075 0.953125 26.1493 0.953125Z" fill="#FFD61B"/>
<path d="M16.3173 4.54688V14.8204H14.6702L9.8266 7.82073H9.7412V14.8204H7.88672V4.54688H9.54599L14.3774 11.5466H14.475V4.54688H16.3173Z" fill="white"/>
<path d="M19.7055 4.54688L22.3774 12.6338H22.4872L25.1469 4.54688H27.1966L23.573 14.8204H21.2793L17.668 4.54688H19.7055Z" fill="white"/>
</svg>
