<svg width="35" height="19" viewBox="0 0 35 19" fill="none" xmlns="http://www.w3.org/2000/svg">
<path d="M26.3524 0.96875H9.12528C4.36708 0.96875 0.511719 4.82897 0.511719 9.59316C0.511719 14.3574 4.36708 18.2176 9.12528 18.2176H26.3524C31.1106 18.2176 34.966 14.3574 34.966 9.59316C34.966 4.82897 31.1106 0.96875 26.3524 0.96875Z" fill="#61AEE6"/>
<path d="M15.5442 7.34687C15.4954 6.9071 15.3002 6.56505 14.9585 6.32073C14.6047 6.07642 14.1655 5.95426 13.6043 5.95426C13.2139 5.95426 12.8845 6.01534 12.6039 6.12528C12.3232 6.24744 12.1158 6.40624 11.9694 6.6017C11.823 6.80937 11.7498 7.02925 11.7376 7.298C11.7376 7.51789 11.7864 7.70113 11.884 7.85993C11.9816 8.01874 12.1158 8.15311 12.2866 8.26306C12.4574 8.373 12.6527 8.45851 12.8601 8.54402C13.0675 8.61732 13.2749 8.6784 13.4945 8.72726L14.4583 8.97158C14.8487 9.05709 15.227 9.17925 15.5808 9.33805C15.9468 9.49686 16.264 9.69232 16.5568 9.92442C16.8496 10.1565 17.0692 10.4375 17.24 10.7795C17.4109 11.1094 17.4963 11.5003 17.4963 11.9523C17.4963 12.5508 17.3377 13.0883 17.0326 13.5403C16.7276 14.0045 16.2762 14.3588 15.6906 14.6153C15.105 14.8718 14.4095 15.0062 13.5799 15.0062C12.7503 15.0062 12.0792 14.8841 11.4936 14.6275C10.908 14.3832 10.4444 14.0167 10.1149 13.5403C9.78553 13.0639 9.60253 12.4775 9.57812 11.7934H11.4204C11.4448 12.1477 11.5546 12.4531 11.7498 12.6852C11.945 12.9295 12.2012 13.1005 12.5062 13.2227C12.8235 13.3449 13.1773 13.4059 13.5555 13.4059C13.9337 13.4059 14.3119 13.3449 14.6291 13.2227C14.9341 13.1005 15.1782 12.9295 15.349 12.7096C15.5198 12.4897 15.6174 12.2332 15.6174 11.94C15.6174 11.6713 15.532 11.4514 15.3856 11.2682C15.227 11.0971 15.0196 10.9383 14.7389 10.8284C14.4583 10.7062 14.1411 10.6085 13.7629 10.5108L12.5917 10.2054C11.7376 9.9855 11.0666 9.65567 10.5786 9.20368C10.0905 8.76391 9.84654 8.16533 9.84654 7.43238C9.84654 6.82158 10.0173 6.2963 10.3468 5.8321C10.6762 5.3679 11.1276 5.01363 11.701 4.76932C12.2744 4.51278 12.9211 4.39062 13.6409 4.39062C14.3607 4.39062 15.0196 4.51278 15.5686 4.76932C16.1176 5.02585 16.5568 5.3679 16.874 5.81988C17.1912 6.27187 17.3499 6.78494 17.3621 7.3713H15.5686L15.5442 7.34687Z" fill="white"/>
<path d="M19.1406 14.8302V4.50781H23.0082C23.8012 4.50781 24.46 4.6544 25.0091 4.94758C25.5459 5.24076 25.9607 5.64389 26.2291 6.16917C26.5097 6.68224 26.6439 7.2686 26.6439 7.92826C26.6439 8.58792 26.5097 9.17428 26.2291 9.68734C25.9485 10.2004 25.5337 10.6035 24.9969 10.8967C24.4478 11.1899 23.789 11.3365 22.9838 11.3365H20.4217V9.79729H22.7276C23.1912 9.79729 23.5694 9.71178 23.8622 9.55297C24.155 9.39416 24.3746 9.17428 24.521 8.8811C24.6675 8.58791 24.7407 8.2703 24.7407 7.90383C24.7407 7.53735 24.6675 7.21974 24.521 6.93877C24.3746 6.65781 24.155 6.43792 23.8622 6.29133C23.5694 6.13252 23.179 6.05923 22.7154 6.05923H21.0073V14.818H19.1406V14.8302Z" fill="white"/>
</svg>
